<svg xmlns="http://www.w3.org/2000/svg" viewBox="0 0 54 54"><defs><style>.cls-1{fill:#72695c;}.cls-2{fill:none;}</style></defs><g id="圖層_2" data-name="圖層 2"><g id="圖層_1-2" data-name="圖層 1"><path class="cls-1" d="M44.84,27.52a1,1,0,0,0,.06-.16c0-.09.05-.18.07-.27s0-.21,0-.32v-.13a2,2,0,0,0-.59-1.44l-16-15.87a2,2,0,1,0-2.82,2.84L38.27,24.75H11a2,2,0,0,0,0,4H38.17L25.59,41.34a2,2,0,1,0,2.82,2.82l16-16a2.42,2.42,0,0,0,.25-.31l.06-.1A1.79,1.79,0,0,0,44.84,27.52Z"/><rect class="cls-2" width="54" height="54"/></g></g></svg>