<svg width="28" height="28" viewBox="0 0 28 28" fill="none" xmlns="http://www.w3.org/2000/svg">
<path d="M14 27.2009C20.5275 27.2009 25.953 21.7869 25.953 15.2479C25.953 9.48245 21.7345 4.59545 16.2615 3.51795V1.85295C16.2615 1.02095 15.6875 0.797946 15.043 1.25545L11.3045 3.86845C10.7775 4.24345 10.7655 4.80595 11.3045 5.19295L15.031 7.81795C15.6875 8.28645 16.2615 8.06395 16.2615 7.21995V5.54495C20.6915 6.55245 23.949 10.5019 23.949 15.2479C23.9544 16.5565 23.7009 17.8533 23.2029 19.0635C22.705 20.2737 21.9726 21.3734 21.0478 22.2993C20.123 23.2251 19.0242 23.9589 17.8146 24.4583C16.605 24.9577 15.3086 25.2128 14 25.2089C8.4685 25.2089 4.0275 20.7789 4.039 15.2479C4.0505 11.9199 5.668 8.97845 8.164 7.19745C8.6445 6.83395 8.797 6.28295 8.492 5.79095C8.211 5.31095 7.5665 5.18145 7.0505 5.57995C4.0275 7.77145 2.047 11.3104 2.047 15.2479C2.047 21.7869 7.461 27.2009 14 27.2009ZM16.824 20.1814C18.7695 20.1814 20.047 18.3414 20.047 15.5294C20.047 12.6934 18.7695 10.8299 16.824 10.8299C14.879 10.8299 13.6015 12.6934 13.6015 15.5294C13.6015 18.3419 14.879 20.1814 16.824 20.1814ZM10.719 20.0409C11.1755 20.0409 11.469 19.7244 11.469 19.2324V11.8614C11.469 11.2869 11.164 10.9239 10.6365 10.9239C10.32 10.9239 10.0975 11.0289 9.6755 11.3104L8.047 12.4004C7.789 12.5879 7.66 12.7989 7.66 13.0804C7.66 13.4669 7.965 13.7949 8.34 13.7949C8.5625 13.7949 8.668 13.7479 8.9025 13.5839L9.9925 12.7869V19.2319C9.9925 19.7129 10.2855 20.0409 10.719 20.0409ZM16.8235 18.7634C15.7925 18.7634 15.1245 17.5334 15.1245 15.5294C15.1245 13.4899 15.7805 12.2479 16.8235 12.2479C17.8785 12.2479 18.511 13.4784 18.511 15.5294C18.511 17.5329 17.8665 18.7634 16.8235 18.7634Z" fill="#CAC8BE"/>
</svg>
