<svg xmlns="http://www.w3.org/2000/svg" viewBox="0 0 48 48"><defs><style>.cls-1{fill:#948d7b;}.cls-2{fill:#bdbbb2;}</style></defs><g id="圖層_2" data-name="圖層 2"><g id="圖層_1-2" data-name="圖層 1"><path class="cls-1" d="M24,2A22,22,0,1,1,2,24,22,22,0,0,1,24,2m0-2A24,24,0,1,0,48,24,24,24,0,0,0,24,0Z"/><path class="cls-2" d="M25.41,24l7.3-7.29a1,1,0,0,0-1.42-1.42L24,22.59l-7.29-7.3a1,1,0,0,0-1.42,1.42L22.59,24l-7.3,7.29a1,1,0,0,0,0,1.42,1,1,0,0,0,1.42,0L24,25.41l7.29,7.3a1,1,0,0,0,1.42,0,1,1,0,0,0,0-1.42Z"/></g></g></svg>