<svg xmlns="http://www.w3.org/2000/svg" viewBox="0 0 48 48"><defs><style>.cls-1{fill:#948d7b;}.cls-2{fill:#cac8be;}</style></defs><g id="圖層_2" data-name="圖層 2"><g id="圖層_1-2" data-name="圖層 1"><path class="cls-1" d="M24,2A22,22,0,1,1,2,24,22,22,0,0,1,24,2m0-2A24,24,0,1,0,48,24,24,24,0,0,0,24,0Z"/><path class="cls-2" d="M26,12.63l-7.93,6.2H14.22a2.55,2.55,0,0,0-2.55,2.55v4.91a2.54,2.54,0,0,0,2.55,2.54h3.42L26,35.37a1.66,1.66,0,0,0,2.68-1.31V13.94A1.66,1.66,0,0,0,26,12.63Z"/><path class="cls-2" d="M30.67,28a1.17,1.17,0,0,1-.81-.33,1.15,1.15,0,0,1,0-1.63,3.35,3.35,0,0,0,.66-2.19,3.4,3.4,0,0,0-.67-2.2A1.15,1.15,0,0,1,31.49,20a5.51,5.51,0,0,1,1.34,3.81,5.52,5.52,0,0,1-1.34,3.82A1.17,1.17,0,0,1,30.67,28Z"/><path class="cls-2" d="M33.17,31a1.17,1.17,0,0,1-.81-.33,1.15,1.15,0,0,1,0-1.63A7.67,7.67,0,0,0,34,23.83a7.64,7.64,0,0,0-1.67-5.19A1.15,1.15,0,0,1,34,17a9.93,9.93,0,0,1,2.34,6.81A9.94,9.94,0,0,1,34,30.65,1.17,1.17,0,0,1,33.17,31Z"/></g></g></svg>