<?xml version="1.0" encoding="UTF-8"?>
<svg xmlns="http://www.w3.org/2000/svg" version="1.1" viewBox="0 0 390 390">
  <defs>
    <style>
      .cls-1 {
        fill: #f0743e;
      }

      .cls-2 {
        fill: none;
        stroke: #26221f;
        stroke-linecap: round;
        stroke-linejoin: round;
        stroke-width: 4.08px;
      }

      .cls-3 {
        fill: #9ab2d4;
      }

      .cls-4 {
        fill: #26221f;
      }
    </style>
  </defs>
  <!-- Generator: Adobe Illustrator 28.6.0, SVG Export Plug-In . SVG Version: 1.2.0 Build 709)  -->
  <g>
    <g id="_圖層_1" data-name="圖層_1">
      <g>
        <path class="cls-2" d="M130.34,172.86c-18.33,21.17-22.62,25.31-28.6,66.57"/>
        <path class="cls-2" d="M103.06,255.21c1.85-8.12,3.21-14.27-1.32-15.79-7.72-2.58-9.67,23.63-9.37,30.37"/>
      </g>
      <path class="cls-3" d="M302.5,136.29c-9.76,94.83-21.32,102.96-122.04,102.96-80.9,0-83.27-8.13-93.04-102.96-3.32-32.23-1.71-46.04,5.25-54.94,13.13-16.81,33.31-22.72,87.79-22.72,65.64,0,99.45,1.69,116.79,22.72,7.28,8.84,8.57,22.72,5.25,54.94Z"/>
      <g>
        <g>
          <path class="cls-4" d="M147.43,94.95h3.89c1.78,0,3.22,1.44,3.22,3.22v1.89c0,2.85-2.31,5.16-5.16,5.16h0c-2.85,0-5.16-2.31-5.16-5.16v-1.89c0-1.78,1.44-3.22,3.22-3.22Z"/>
          <path class="cls-4" d="M208.62,94.95h3.89c1.78,0,3.22,1.44,3.22,3.22v1.89c0,2.85-2.31,5.16-5.16,5.16h0c-2.85,0-5.16-2.31-5.16-5.16v-1.89c0-1.78,1.44-3.22,3.22-3.22Z"/>
        </g>
        <path class="cls-4" d="M178.93,108.14c0-1.42-1.16-2.57-2.58-2.57h0c-1.43,0-2.58,1.15-2.58,2.57,0,.88.72,1.6,1.61,1.6h1.94c.89,0,1.61-.72,1.61-1.6Z"/>
        <g>
          <ellipse class="cls-1" cx="139.93" cy="115.55" rx="8.99" ry="8.94"/>
          <ellipse class="cls-1" cx="220" cy="115.55" rx="8.99" ry="8.94"/>
        </g>
        <path class="cls-2" d="M184.14,130.22c0,4.63-1.48,11.4-7.8,11.4s-7.8-6.77-7.8-11.4,4.04-4.53,7.8-4.53,7.8-.1,7.8,4.53Z"/>
      </g>
      <g>
        <path class="cls-2" d="M254.86,172.86c17.99,23.89,20.77,25.97,25.49,67.4"/>
        <path class="cls-2" d="M278.55,255.99c-1.6-8.18-2.78-14.36,1.8-15.74,7.79-2.35,8.94,23.91,8.44,30.64"/>
      </g>
      <g>
        <path class="cls-2" d="M137.68,221.96c-18.13,47.83-12.45,58.8.39,93.73,2.78,7.55,3.87,12.15-10.51,13.23-32.96,2.47-29.09-4.73-26.12-9.85,2.93-5.05,15.14-2.72,30.3-1.15"/>
        <path class="cls-2" d="M241.67,221.96c-36.78,37.71-23.39,50.76,5.94,71.72,6.55,4.68,8.65,9.37-3.92,16.44-28.82,16.19-28.35,8.03-27.83,2.14s12.56-8.88,26.97-13.87"/>
      </g>
    </g>
  </g>
</svg>