<?xml version="1.0" encoding="UTF-8"?>
<svg xmlns="http://www.w3.org/2000/svg" version="1.1" viewBox="0 0 390 390">
  <defs>
    <style>
      .cls-1 {
        fill: none;
        stroke: #26221f;
        stroke-linecap: round;
        stroke-linejoin: round;
        stroke-width: 4.08px;
      }

      .cls-2 {
        fill: #fdd849;
      }

      .cls-3 {
        fill: #cdbcdc;
      }

      .cls-4 {
        fill: #26221f;
      }
    </style>
  </defs>
  <!-- Generator: Adobe Illustrator 28.6.0, SVG Export Plug-In . SVG Version: 1.2.0 Build 709)  -->
  <g>
    <g id="_圖層_1" data-name="圖層_1">
      <path class="cls-3" d="M321.25,184.88c0,100.37-32.52,126.25-126.25,126.25s-126.25-25.88-126.25-126.25c0-69.73,34.73-126.25,126.25-126.25s126.25,56.52,126.25,126.25Z"/>
      <g>
        <path class="cls-4" d="M197.58,105.9c0-1.43-1.16-2.58-2.58-2.58h0c-1.43,0-2.58,1.16-2.58,2.58,0,.89.72,1.61,1.61,1.61h1.94c.89,0,1.61-.72,1.61-1.61Z"/>
        <g>
          <g>
            <path class="cls-1" d="M152.98,95.21s6.42,7.46,16.59.57"/>
            <path class="cls-1" d="M237.02,95.21s-6.42,7.46-16.59.57"/>
          </g>
          <circle class="cls-1" cx="195.5" cy="124.39" r="7.48"/>
        </g>
        <g>
          <circle class="cls-2" cx="151.35" cy="113.35" r="8.99"/>
          <circle class="cls-2" cx="238.65" cy="113.35" r="8.99"/>
        </g>
      </g>
      <g>
        <g>
          <g>
            <path class="cls-1" d="M98.98,172.45c-32.4,43.49-4.52,84.69,67.81,88.97"/>
            <g>
              <path class="cls-1" d="M196.46,263.77c-8.98,1.14-13.62.2-15.93-1.28"/>
              <path class="cls-1" d="M185.75,257.85c-9.65-9.37-22.12-1.64-18.96,3.57,0,0,12.94,14.5,32.87,7.33"/>
            </g>
          </g>
          <g>
            <path class="cls-1" d="M292.01,172.45c29.24,44.49,12.85,81-70.19,86.98"/>
            <g>
              <path class="cls-1" d="M192.35,255.26c8.52,3.07,13.25,3.16,15.83,2.22"/>
              <path class="cls-1" d="M204.09,251.82c11.46-7.04,21.95,3.22,17.73,7.61,0,0-15.79,11.34-33.67,0"/>
            </g>
          </g>
        </g>
        <g>
          <path class="cls-1" d="M104.95,255.07c-60.68,39.81-21.9,94.6,104.65,66.76,8.54-1.88,42.57-2.05,43.65-10.36,2.16-16.75-31.35-12.43-39.38-.4"/>
          <path class="cls-1" d="M285.05,255.07c60.68,39.81,21.9,94.6-104.65,66.76-8.54-1.88-42.57-2.05-43.65-10.36-2.16-16.75,31.35-12.43,39.38-.4"/>
        </g>
      </g>
    </g>
  </g>
</svg>