<?xml version="1.0" encoding="UTF-8"?>
<svg xmlns="http://www.w3.org/2000/svg" version="1.1" viewBox="0 0 390 390">
  <defs>
    <style>
      .cls-1 {
        fill: #fe9e09;
      }

      .cls-2 {
        fill: none;
        stroke: #26221f;
        stroke-linecap: round;
        stroke-linejoin: round;
        stroke-width: 4.08px;
      }

      .cls-3 {
        fill: #fdd849;
      }

      .cls-4 {
        fill: #26221f;
      }
    </style>
  </defs>
  <!-- Generator: Adobe Illustrator 28.6.0, SVG Export Plug-In . SVG Version: 1.2.0 Build 709)  -->
  <g>
    <g id="_圖層_1" data-name="圖層_1">
      <path class="cls-1" d="M195,58.63c-70.11,0-108.2,123.57-98.79,191.76,4.85,35.14,27.36,60.74,98.79,60.74s93.94-25.6,98.79-60.74c9.39-68.08-28.68-191.76-98.79-191.76Z"/>
      <g>
        <path class="cls-4" d="M197.58,107.74c0-1.43-1.16-2.58-2.58-2.58h0c-1.43,0-2.58,1.16-2.58,2.58,0,.89.72,1.61,1.61,1.61h1.94c.89,0,1.61-.72,1.61-1.61Z"/>
        <g>
          <path class="cls-2" d="M155.77,97.47s9.06,4.28,20.02.26"/>
          <path class="cls-2" d="M234.23,97.47s-9.06,4.28-20.02.26"/>
        </g>
        <path class="cls-2" d="M175.01,126.63c3.74,2.89,11.29,4.86,19.99,4.86,8.7,0,16.25-1.97,19.99-4.86"/>
        <g>
          <circle class="cls-3" cx="155.84" cy="115.19" r="8.99"/>
          <circle class="cls-3" cx="234.16" cy="115.19" r="8.99"/>
        </g>
      </g>
      <g>
        <g>
          <g>
            <path class="cls-2" d="M110.72,172.45c-19.17,56.82,10.03,106.74,57.81,108.63"/>
            <g>
              <path class="cls-2" d="M198.2,283.42c-8.98,1.14-13.62.2-15.93-1.28"/>
              <path class="cls-2" d="M187.49,277.5c-9.65-9.37-22.12-1.64-18.96,3.57,0,0,12.94,14.5,32.87,7.33"/>
            </g>
          </g>
          <g>
            <path class="cls-2" d="M277.75,172.45c13.67,40.22,7.86,96.62-54.19,106.64"/>
            <g>
              <path class="cls-2" d="M194.09,274.92c8.52,3.07,13.25,3.16,15.83,2.22"/>
              <path class="cls-2" d="M205.83,271.47c11.46-7.04,21.95,3.22,17.73,7.61,0,0-15.79,11.34-33.67,0"/>
            </g>
          </g>
        </g>
        <g>
          <path class="cls-2" d="M104.95,255.07c-60.68,39.81-21.9,94.6,104.65,66.76,8.54-1.88,42.57-2.05,43.65-10.36,2.16-16.75-31.35-12.43-39.38-.4"/>
          <path class="cls-2" d="M285.05,255.07c60.68,39.81,21.9,94.6-104.65,66.76-8.54-1.88-42.57-2.05-43.65-10.36-2.16-16.75,31.35-12.43,39.38-.4"/>
        </g>
      </g>
    </g>
  </g>
</svg>