<svg width="28" height="28" viewBox="0 0 28 28" fill="none" xmlns="http://www.w3.org/2000/svg">
<path d="M14 27.201C20.5275 27.201 25.953 21.787 25.953 15.248C25.953 11.3105 23.961 7.7715 20.949 5.58C20.434 5.1815 19.789 5.3105 19.496 5.791C19.203 6.283 19.3555 6.834 19.824 7.1975C22.3205 8.9785 23.949 11.92 23.961 15.248C23.9725 20.78 19.5195 25.209 14 25.209C8.4685 25.209 4.0505 20.779 4.0505 15.248C4.0505 10.502 7.3085 6.553 11.7385 5.545V7.2325C11.7385 8.0645 12.3125 8.2875 12.945 7.83L16.695 5.205C17.2225 4.842 17.2345 4.2795 16.695 3.8925L12.957 1.2675C12.312 0.799002 11.7385 1.0215 11.7385 1.8655V3.5175C6.2535 4.584 2.047 9.4825 2.047 15.248C2.047 21.787 7.461 27.201 14 27.201ZM16.836 20.1815C18.781 20.1815 20.047 18.3415 20.047 15.5295C20.047 12.6935 18.781 10.83 16.836 10.83C14.891 10.83 13.6135 12.6935 13.6135 15.5295C13.6135 18.342 14.8905 20.1815 16.836 20.1815ZM10.7185 20.041C11.1755 20.041 11.4805 19.7245 11.4805 19.2325V11.8615C11.4805 11.287 11.164 10.924 10.6365 10.924C10.32 10.924 10.1095 11.029 9.6755 11.3105L8.0585 12.4005C7.789 12.588 7.672 12.799 7.672 13.0805C7.672 13.467 7.9765 13.795 8.3515 13.795C8.5625 13.795 8.6795 13.748 8.914 13.584L10.004 12.787V19.232C10.004 19.713 10.2845 20.041 10.7185 20.041ZM16.8365 18.7635C15.7935 18.7635 15.137 17.5335 15.137 15.5295C15.137 13.49 15.782 12.248 16.8365 12.248C17.8795 12.248 18.512 13.4785 18.512 15.5295C18.512 17.533 17.8675 18.7635 16.8365 18.7635Z" fill="#CAC8BE"/>
</svg>
