<svg xmlns="http://www.w3.org/2000/svg" viewBox="0 0 40 40"><defs><style>.cls-1{fill:#f0743e;}.cls-2{fill:#fff;}</style></defs><g id="圖層_2" data-name="圖層 2"><g id="圖層_1-2" data-name="圖層 1"><circle class="cls-1" cx="20" cy="20" r="20"/><path class="cls-2" d="M25,18.06a1.48,1.48,0,0,1-1.07-.45l-3.93-4-3.93,4a1.5,1.5,0,1,1-2.14-2.09l5-5.13a1.53,1.53,0,0,1,2.14,0l5,5.13A1.49,1.49,0,0,1,25,18.06Z"/><path class="cls-2" d="M20,30.06a1.49,1.49,0,0,1-1.07-.45l-5-5.13a1.5,1.5,0,1,1,2.14-2.09l3.93,4,3.93-4a1.5,1.5,0,1,1,2.14,2.09l-5,5.13A1.49,1.49,0,0,1,20,30.06Z"/></g></g></svg>