<?xml version="1.0" encoding="UTF-8"?>
<svg xmlns="http://www.w3.org/2000/svg" version="1.1" viewBox="0 0 390 390">
  <defs>
    <style>
      .cls-1 {
        fill: #f0743e;
      }

      .cls-2 {
        fill: none;
        stroke: #26221f;
        stroke-linecap: round;
        stroke-linejoin: round;
        stroke-width: 4.08px;
      }

      .cls-3 {
        fill: #fdd849;
      }

      .cls-4 {
        fill: #26221f;
      }
    </style>
  </defs>
  <!-- Generator: Adobe Illustrator 28.6.0, SVG Export Plug-In . SVG Version: 1.2.0 Build 709)  -->
  <g>
    <g id="_圖層_1" data-name="圖層_1">
      <path class="cls-3" d="M298.32,288.2c22.93-22.93,28.65-56.53,17.2-84.8-4.83-11.92-4.83-25.13,0-37.05,11.45-28.27,5.73-61.87-17.2-84.8-22.93-22.93-56.53-28.65-84.8-17.2-11.92,4.83-25.13,4.83-37.05,0-28.27-11.45-61.87-5.73-84.8,17.2-22.93,22.93-28.65,56.53-17.2,84.8,4.83,11.92,4.83,25.13,0,37.05-11.45,28.27-5.73,61.87,17.2,84.8,22.93,22.93,56.53,28.65,84.8,17.2,11.92-4.83,25.13-4.83,37.05,0,28.27,11.45,61.87,5.73,84.8-17.2Z"/>
      <g>
        <g>
          <path class="cls-4" d="M158.84,93.78h3.89c1.78,0,3.22,1.44,3.22,3.22v1.94c0,2.85-2.31,5.16-5.16,5.16h0c-2.85,0-5.16-2.31-5.16-5.16v-1.94c0-1.78,1.44-3.22,3.22-3.22Z"/>
          <path class="cls-4" d="M227.27,93.78h3.89c1.78,0,3.22,1.44,3.22,3.22v1.94c0,2.85-2.31,5.16-5.16,5.16h0c-2.85,0-5.16-2.31-5.16-5.16v-1.94c0-1.78,1.44-3.22,3.22-3.22Z"/>
        </g>
        <path class="cls-2" d="M195,135.96c8.55,0,15.98-1.43,19.22-8.98,2.02-4.71-1.92-8.85-5.73-8.9-4.62-.06-5.21,1.97-13.48,1.97-8.28,0-8.86-2.03-13.48-1.97-3.82.05-7.75,4.19-5.73,8.9,3.24,7.54,10.67,8.97,19.21,8.98Z"/>
        <path class="cls-4" d="M197.58,107.05c0-1.43-1.16-2.58-2.58-2.58h0c-1.43,0-2.58,1.16-2.58,2.58,0,.89.72,1.61,1.61,1.61h1.94c.89,0,1.61-.72,1.61-1.61Z"/>
        <g>
          <circle class="cls-1" cx="151.35" cy="114.5" r="8.99"/>
          <circle class="cls-1" cx="238.65" cy="114.5" r="8.99"/>
        </g>
      </g>
      <g>
        <g>
          <g>
            <path class="cls-2" d="M97.95,172.45c0,57.15-47.78,95.77-67.6-1.28"/>
            <g>
              <path class="cls-2" d="M42.08,164.41c-2.39,6.88-6.56,9.99-11.73,6.76,0,0-14.84-4.37-2.03-15.64,3.91-3.44,9.08-3.1,12.41-.08"/>
              <path class="cls-2" d="M27.18,142.66s2.54,7.08.14,13.8"/>
              <path class="cls-2" d="M38.73,145.38s.59,3.69-.47,8.47"/>
              <path class="cls-2" d="M32.49,139.3s2.07,7.51,1.03,13.84"/>
            </g>
          </g>
          <g>
            <path class="cls-2" d="M292.05,172.45c0,57.15,47.78,95.77,67.6-1.28"/>
            <g>
              <path class="cls-2" d="M347.92,164.41c2.39,6.88,6.56,9.99,11.73,6.76,0,0,14.84-4.37,2.03-15.64-3.91-3.44-9.08-3.1-12.41-.08"/>
              <path class="cls-2" d="M362.68,156.46c-2.4-6.72.14-13.8.14-13.8"/>
              <path class="cls-2" d="M351.74,153.85c-1.06-4.78-.47-8.47-.47-8.47"/>
              <path class="cls-2" d="M356.48,153.14c-1.04-6.33,1.03-13.84,1.03-13.84"/>
            </g>
          </g>
        </g>
        <g>
          <path class="cls-2" d="M104.95,255.07c-60.68,39.81-21.9,94.6,104.65,66.76,8.54-1.88,42.57-2.05,43.65-10.36,2.16-16.75-31.35-12.43-39.38-.4"/>
          <path class="cls-2" d="M285.05,255.07c60.68,39.81,21.9,94.6-104.65,66.76-8.54-1.88-42.57-2.05-43.65-10.36-2.16-16.75,31.35-12.43,39.38-.4"/>
        </g>
      </g>
    </g>
  </g>
</svg>