<svg width="48" height="48" viewBox="0 0 48 48" fill="none" xmlns="http://www.w3.org/2000/svg">
<path d="M24 48C37.2548 48 48 37.2548 48 24C48 10.7452 37.2548 0 24 0C10.7452 0 0 10.7452 0 24C0 37.2548 10.7452 48 24 48Z" fill="#CDBCDC"/>
<path d="M16.3845 33.8546C16.0756 33.8546 15.7715 33.7098 15.5785 33.4348C15.2648 32.9908 15.371 32.3779 15.815 32.0642C17.48 30.8914 20.5349 30.1917 23.9951 30.1917C27.4554 30.1917 30.5152 30.8914 32.1753 32.0642C32.6193 32.3779 32.7255 32.9908 32.4118 33.4348C32.0981 33.8788 31.4852 33.9849 31.0412 33.6712C29.7382 32.7543 26.9728 32.1607 23.9951 32.1607C21.0175 32.1607 18.2521 32.7543 16.9491 33.6712C16.7754 33.7919 16.5775 33.8498 16.3845 33.8498V33.8546Z" fill="#383330"/>
<path d="M25.2454 20.5928C25.2454 19.9027 24.6856 19.3477 24.0003 19.3477C23.3101 19.3477 22.7551 19.9075 22.7551 20.5928C22.7551 21.0223 23.1026 21.3698 23.5321 21.3698H24.4684C24.8979 21.3698 25.2454 21.0223 25.2454 20.5928Z" fill="#383330"/>
<path d="M12.5478 18.4788C11.1723 18.4788 10.0575 18.0589 10.0575 16.6835C10.0575 15.8245 10.7525 15.1295 11.6115 15.1295H13.4888C14.3479 15.1295 15.0428 15.8245 15.0428 16.6835C15.0428 18.0589 13.928 18.4788 12.5526 18.4788H12.5478Z" fill="#383330"/>
<path d="M35.4517 18.4788C34.0763 18.4788 32.9614 18.0589 32.9614 16.6835C32.9614 15.8245 33.6564 15.1295 34.5154 15.1295H36.3927C37.2518 15.1295 37.9468 15.8245 37.9468 16.6835C37.9468 18.0589 36.8319 18.4788 35.4565 18.4788H35.4517Z" fill="#383330"/>
<path d="M37.9424 16.1141H32.9619C32.4166 16.1141 31.9774 15.6749 31.9774 15.1295C31.9774 14.5842 32.4166 14.145 32.9619 14.145H37.9424C38.4878 14.145 38.9269 14.5842 38.9269 15.1295C38.9269 15.6749 38.4878 16.1141 37.9424 16.1141Z" fill="#383330"/>
<path d="M15.0374 16.1141H10.0569C9.51155 16.1141 9.07239 15.6749 9.07239 15.1295C9.07239 14.5842 9.51155 14.145 10.0569 14.145H15.0374C15.5827 14.145 16.0219 14.5842 16.0219 15.1295C16.0219 15.6749 15.5827 16.1141 15.0374 16.1141Z" fill="#383330"/>
</svg>
