<?xml version="1.0" encoding="UTF-8"?>
<svg xmlns="http://www.w3.org/2000/svg" version="1.1" viewBox="0 0 390 390">
  <defs>
    <style>
      .cls-1 {
        fill: #f0743e;
      }

      .cls-2 {
        fill: #aad59f;
      }

      .cls-3 {
        fill: none;
        stroke: #26221f;
        stroke-linecap: round;
        stroke-linejoin: round;
        stroke-width: 4.08px;
      }

      .cls-4 {
        fill: #26221f;
      }
    </style>
  </defs>
  <!-- Generator: Adobe Illustrator 28.6.0, SVG Export Plug-In . SVG Version: 1.2.0 Build 709)  -->
  <g>
    <g id="_圖層_1" data-name="圖層_1">
      <g>
        <path class="cls-2" d="M195,311.13c61.01,0,101.31-17.75,98.34-80.45-1.11-23.35-14.83-45.8-25.17-68.72-11.27-24.98-2.6-55.3-20.52-78.45-13.55-17.5-31.13-24.87-52.64-24.87-21.51,0-39.09,7.37-52.64,24.87-17.92,23.16-9.25,53.47-20.52,78.45-10.35,22.93-24.07,45.38-25.17,68.72-2.97,62.7,37.33,80.45,98.34,80.45Z"/>
        <g>
          <path class="cls-4" d="M171.27,103.35h0c-2.85,0-5.16-.87-5.16-3.72h0c0-1.78,1.44-3.22,3.22-3.22h3.89c1.78,0,3.22,1.44,3.22,3.22h0c0,2.85-2.31,3.72-5.16,3.72Z"/>
          <path class="cls-4" d="M218.73,103.35h0c-2.85,0-5.16-.87-5.16-3.72h0c0-1.78,1.44-3.22,3.22-3.22h3.89c1.78,0,3.22,1.44,3.22,3.22h0c0,2.85-2.31,3.72-5.16,3.72Z"/>
        </g>
        <path class="cls-4" d="M197.58,107.74c0-1.43-1.16-2.58-2.58-2.58h0c-1.43,0-2.58,1.16-2.58,2.58,0,.89.72,1.61,1.61,1.61h1.94c.89,0,1.61-.72,1.61-1.61Z"/>
        <g>
          <circle class="cls-1" cx="160.57" cy="115.19" r="8.99"/>
          <circle class="cls-1" cx="229.43" cy="115.19" r="8.99"/>
        </g>
        <path class="cls-3" d="M195,136.65c8.55,0,15.98-1.43,19.22-8.98,2.02-4.71-1.92-8.85-5.73-8.9-4.62-.06-5.21,1.97-13.48,1.97-8.28,0-8.86-2.03-13.48-1.97-3.82.05-7.75,4.19-5.73,8.9,3.24,7.54,10.67,8.97,19.21,8.98Z"/>
      </g>
      <g>
        <g>
          <g>
            <path class="cls-3" d="M124.48,177.45c-67.04,29.43-22.74,76.2,58.82,42.33"/>
            <path class="cls-3" d="M192.21,206.67c-.76,9.71-1.89,17.5-8.9,13.11-7.4-4.64,3.32-33.4,8.9-32.61"/>
          </g>
          <g>
            <path class="cls-3" d="M265.51,177.45c67.04,29.43,22.74,76.2-58.82,42.33"/>
            <path class="cls-3" d="M197.79,206.67c.76,9.71,1.89,17.5,8.9,13.11,7.4-4.64-3.32-33.4-8.9-32.61"/>
          </g>
        </g>
        <g>
          <path class="cls-3" d="M104.95,255.07c-60.68,39.81-21.9,94.6,104.65,66.76,8.54-1.88,42.57-2.05,43.65-10.36,2.16-16.75-31.35-12.43-39.38-.4"/>
          <path class="cls-3" d="M285.05,255.07c60.68,39.81,21.9,94.6-104.65,66.76-8.54-1.88-42.57-2.05-43.65-10.36-2.16-16.75,31.35-12.43,39.38-.4"/>
        </g>
      </g>
    </g>
  </g>
</svg>