<svg width="49" height="48" viewBox="0 0 49 48" fill="none" xmlns="http://www.w3.org/2000/svg">
<path d="M24.8831 48C38.1379 48 48.8831 37.2548 48.8831 24C48.8831 10.7452 38.1379 0 24.8831 0C11.6282 0 0.883057 10.7452 0.883057 24C0.883057 37.2548 11.6282 48 24.8831 48Z" fill="#FE9E09"/>
<path d="M13.4307 18.4788C12.0553 18.4788 10.9404 18.0589 10.9404 16.6835C10.9404 15.8245 11.6354 15.1295 12.4944 15.1295H14.3718C15.2308 15.1295 15.9258 15.8245 15.9258 16.6835C15.9258 18.0589 14.8109 18.4788 13.4355 18.4788H13.4307Z" fill="#383330"/>
<path d="M36.3347 18.4788C34.9593 18.4788 33.8445 18.0589 33.8445 16.6835C33.8445 15.8245 34.5394 15.1295 35.3985 15.1295H37.2758C38.1348 15.1295 38.8298 15.8245 38.8298 16.6835C38.8298 18.0589 37.715 18.4788 36.3395 18.4788H36.3347Z" fill="#383330"/>
<path d="M24.8828 33.8548C21.4226 33.8548 18.3628 33.1551 16.7027 31.9823C16.2587 31.6686 16.1525 31.0557 16.4662 30.6117C16.7799 30.1677 17.3928 30.0616 17.8368 30.3753C19.1398 31.2922 21.9052 31.8858 24.8828 31.8858C27.8605 31.8858 30.6259 31.2922 31.9289 30.3753C32.3729 30.0616 32.9858 30.1677 33.2995 30.6117C33.6132 31.0557 33.507 31.6686 33.063 31.9823C31.398 33.1551 28.3431 33.8548 24.8828 33.8548Z" fill="#383330"/>
<path d="M26.1284 20.5928C26.1284 19.9027 25.5686 19.3477 24.8833 19.3477C24.1932 19.3477 23.6382 19.9075 23.6382 20.5928C23.6382 21.0223 23.9857 21.3698 24.4152 21.3698H25.3514C25.7809 21.3698 26.1284 21.0223 26.1284 20.5928Z" fill="#383330"/>
</svg>
