<svg width="49" height="48" viewBox="0 0 49 48" fill="none" xmlns="http://www.w3.org/2000/svg">
<path d="M24.8831 48C38.1379 48 48.8831 37.2548 48.8831 24C48.8831 10.7452 38.1379 0 24.8831 0C11.6282 0 0.883057 10.7452 0.883057 24C0.883057 37.2548 11.6282 48 24.8831 48Z" fill="#FDD849"/>
<path d="M13.4307 17.6394C12.0552 17.6394 10.9404 17.2196 10.9404 15.8442C10.9404 14.9851 11.6354 14.2902 12.4944 14.2902H14.3718C15.2308 14.2902 15.9258 14.9851 15.9258 15.8442C15.9258 17.2196 14.8109 17.6394 13.4355 17.6394H13.4307Z" fill="#383330"/>
<path d="M36.3357 17.6394C34.9603 17.6394 33.8455 17.2196 33.8455 15.8442C33.8455 14.9851 34.5404 14.2902 35.3994 14.2902H37.2768C38.1358 14.2902 38.8308 14.9851 38.8308 15.8442C38.8308 17.2196 37.716 17.6394 36.3405 17.6394H36.3357Z" fill="#383330"/>
<path d="M26.1284 19.7581C26.1284 19.0679 25.5686 18.5129 24.8833 18.5129C24.1932 18.5129 23.6382 19.0728 23.6382 19.7581C23.6382 20.1876 23.9857 20.5351 24.4152 20.5351H25.3514C25.781 20.5351 26.1284 20.1876 26.1284 19.7581Z" fill="#383330"/>
<path d="M24.8828 34.6945C20.8965 34.6945 16.5675 34.1106 14.7046 29.7671C14.1641 28.5027 14.2703 27.1369 14.999 26.0173C15.7519 24.8542 17.0453 24.1206 18.3628 24.1013C19.4728 24.0868 20.1774 24.2895 20.9158 24.5115C21.7796 24.7673 22.7593 25.0521 24.8828 25.0521C27.0063 25.0521 27.9859 24.7625 28.8498 24.5115C29.5882 24.2944 30.2832 24.0868 31.4028 24.1013C32.7251 24.1206 34.0137 24.8542 34.7666 26.0173C35.4953 27.1369 35.6015 28.5075 35.061 29.7671C33.1933 34.1106 28.8691 34.6945 24.8828 34.6945ZM18.4786 26.0655C18.4497 26.0655 18.4207 26.0655 18.3917 26.0655C17.7402 26.0752 17.0404 26.4854 16.6544 27.0838C16.3937 27.4844 16.1573 28.1456 16.5192 28.9853C17.6582 31.6396 20.0809 32.7207 24.8876 32.7207C29.6944 32.7207 32.1171 31.6396 33.256 28.9853C33.618 28.1407 33.3815 27.4844 33.1209 27.0838C32.73 26.4854 32.0302 26.0752 31.3787 26.0655C30.5486 26.051 30.0756 26.1958 29.4096 26.3937C28.4637 26.6688 27.291 27.0163 24.8876 27.0163C22.4842 27.0163 21.3067 26.6688 20.3656 26.3937C19.7189 26.2055 19.246 26.0655 18.4834 26.0655H18.4786Z" fill="#383330"/>
</svg>
