<svg width="48" height="48" viewBox="0 0 48 48" fill="none" xmlns="http://www.w3.org/2000/svg">
<path d="M24 48C37.2548 48 48 37.2548 48 24C48 10.7452 37.2548 0 24 0C10.7452 0 0 10.7452 0 24C0 37.2548 10.7452 48 24 48Z" fill="#AAD59F"/>
<path d="M12.5478 19.3234C11.1723 19.3234 10.0575 18.9035 10.0575 17.5281C10.0575 16.6691 10.7525 15.9741 11.6115 15.9741H13.4888C14.3479 15.9741 15.0428 16.6691 15.0428 17.5281C15.0428 18.9035 13.928 19.3234 12.5526 19.3234H12.5478Z" fill="#383330"/>
<path d="M35.4526 19.3234C34.0772 19.3234 32.9624 18.9035 32.9624 17.5281C32.9624 16.6691 33.6573 15.9741 34.5164 15.9741H36.3937C37.2528 15.9741 37.9477 16.6691 37.9477 17.5281C37.9477 18.9035 36.8329 19.3234 35.4575 19.3234H35.4526Z" fill="#383330"/>
<path d="M37.948 16.9585H32.9676C32.4222 16.9585 31.983 16.5194 31.983 15.974C31.983 15.4287 32.4222 14.9895 32.9676 14.9895H37.948C38.4934 14.9895 38.9326 15.4287 38.9326 15.974C38.9326 16.5194 38.4934 16.9585 37.948 16.9585Z" fill="#383330"/>
<path d="M15.0432 16.9585H10.0579C9.51253 16.9585 9.07336 16.5194 9.07336 15.974C9.07336 15.4287 9.51253 14.9895 10.0579 14.9895H15.0432C15.5885 14.9895 16.0277 15.4287 16.0277 15.974C16.0277 16.5194 15.5885 16.9585 15.0432 16.9585Z" fill="#383330"/>
<path d="M31.6155 33.0104H16.3893C15.8439 33.0104 15.4048 32.5712 15.4048 32.0259C15.4048 31.4806 15.8439 31.0414 16.3893 31.0414H31.6155C32.1609 31.0414 32.6 31.4806 32.6 32.0259C32.6 32.5712 32.1609 33.0104 31.6155 33.0104Z" fill="#383330"/>
<path d="M25.2454 21.4373C25.2454 20.7471 24.6856 20.1921 24.0003 20.1921C23.3101 20.1921 22.7551 20.752 22.7551 21.4373C22.7551 21.8668 23.1026 22.2143 23.5321 22.2143H24.4684C24.8979 22.2143 25.2454 21.8668 25.2454 21.4373Z" fill="#383330"/>
</svg>
