<svg width="48" height="48" viewBox="0 0 48 48" fill="none" xmlns="http://www.w3.org/2000/svg">
<path d="M24 48C37.2549 48 48 37.2548 48 24C48 10.7452 37.2549 0 24 0C10.7452 0 0 10.7452 0 24C0 37.2548 10.7452 48 24 48Z" fill="#BDD1E4"/>
<path d="M16.3845 33.8546C16.0756 33.8546 15.7715 33.7098 15.5785 33.4348C15.2648 32.9908 15.371 32.3779 15.815 32.0642C17.48 30.8914 20.5349 30.1917 23.9952 30.1917C27.4555 30.1917 30.5152 30.8914 32.1753 32.0642C32.6193 32.3779 32.7255 32.9908 32.4118 33.4348C32.0981 33.8788 31.4852 33.9849 31.0412 33.6712C29.7382 32.7543 26.9729 32.1607 23.9952 32.1607C21.0175 32.1607 18.2521 32.7543 16.9491 33.6712C16.7753 33.7919 16.5775 33.8498 16.3845 33.8498V33.8546Z" fill="#383330"/>
<path d="M25.2454 20.5928C25.2454 19.9027 24.6856 19.3477 24.0003 19.3477C23.3102 19.3477 22.7551 19.9075 22.7551 20.5928C22.7551 21.0223 23.1026 21.3698 23.5321 21.3698H24.4684C24.8979 21.3698 25.2454 21.0223 25.2454 20.5928Z" fill="#383330"/>
<path d="M12.5477 18.4788C11.1723 18.4788 10.0575 18.0589 10.0575 16.6835C10.0575 15.8245 10.7524 15.1295 11.6115 15.1295H13.4888C14.3479 15.1295 15.0428 15.8245 15.0428 16.6835C15.0428 18.0589 13.928 18.4788 12.5525 18.4788H12.5477Z" fill="#383330"/>
<path d="M35.4527 18.4788C34.0772 18.4788 32.9624 18.0589 32.9624 16.6835C32.9624 15.8245 33.6573 15.1295 34.5164 15.1295H36.3937C37.2528 15.1295 37.9477 15.8245 37.9477 16.6835C37.9477 18.0589 36.8329 18.4788 35.4575 18.4788H35.4527Z" fill="#383330"/>
<path d="M37.9424 16.1141H32.962C32.4166 16.1141 31.9774 15.6749 31.9774 15.1295C31.9774 14.5842 32.4166 14.145 32.962 14.145H37.9424C38.4878 14.145 38.927 14.5842 38.927 15.1295C38.927 15.6749 38.4878 16.1141 37.9424 16.1141Z" fill="#383330"/>
<path d="M15.0384 16.1141H10.0579C9.51255 16.1141 9.07336 15.6749 9.07336 15.1295C9.07336 14.5842 9.51255 14.145 10.0579 14.145H15.0384C15.5837 14.145 16.0229 14.5842 16.0229 15.1295C16.0229 15.6749 15.5837 16.1141 15.0384 16.1141Z" fill="#383330"/>
<path d="M35.4527 30.5296C33.2182 30.5296 31.4036 28.7102 31.4036 26.4757V26.1523C31.3843 23.1795 31.5725 19.5551 33.2568 17.8612C33.8552 17.2579 34.6178 16.9346 35.4575 16.9346C36.2972 16.9346 37.0549 17.2531 37.6581 17.8612C39.3376 19.5551 39.5306 23.1795 39.5113 26.1523V26.4757C39.5113 28.7102 37.692 30.5296 35.4575 30.5296H35.4527ZM35.4527 18.9084C35.1341 18.9084 34.888 19.0146 34.6515 19.2511C33.334 20.5782 33.3629 24.7673 33.3678 26.1427V26.4757C33.3678 27.6243 34.3041 28.5557 35.4527 28.5557C36.6013 28.5557 37.5375 27.6195 37.5375 26.4757V26.1427C37.5471 24.7673 37.5761 20.5782 36.2586 19.2511C36.0221 19.0146 35.776 18.9084 35.4575 18.9084H35.4527Z" fill="#383330"/>
<path d="M12.5477 30.5296C10.3133 30.5296 8.49868 28.7102 8.49868 26.4757V26.1523C8.47937 23.1795 8.66763 19.5551 10.3519 17.8612C10.9504 17.2579 11.7128 16.9346 12.5526 16.9346C13.3923 16.9346 14.15 17.2531 14.7533 17.8612C16.4328 19.5551 16.6258 23.1795 16.6065 26.1523V26.4757C16.6065 28.7102 14.787 30.5296 12.5526 30.5296H12.5477ZM12.5477 18.9084C12.2292 18.9084 11.9831 19.0146 11.7467 19.2511C10.4291 20.5782 10.4581 24.7673 10.4629 26.1427V26.4757C10.4629 27.6243 11.3991 28.5557 12.5477 28.5557C13.6964 28.5557 14.6326 27.6195 14.6326 26.4757V26.1427C14.6423 24.7673 14.6712 20.5782 13.3537 19.2511C13.1172 19.0146 12.8711 18.9084 12.5526 18.9084H12.5477Z" fill="#383330"/>
</svg>
