<svg width="118" height="51" viewBox="0 0 118 51" fill="none" xmlns="http://www.w3.org/2000/svg">
<path d="M4.99492 50.1C3.67492 50.1 2.50159 49.66 1.47492 48.78C0.521588 47.8267 0.0449213 46.7267 0.0449213 45.48V11.6C0.0449213 9.47333 0.704921 7.75 2.02492 6.43C3.34492 5.11 5.06825 4.45 7.19492 4.45H18.3049C22.7049 4.45 26.3349 5.69666 29.1949 8.19C32.1283 10.6833 33.5949 13.9833 33.5949 18.09C33.5949 22.5633 32.1649 26.1933 29.3049 28.98C26.4449 31.7667 22.8149 33.16 18.4149 33.16H11.9249C10.4583 33.16 9.72492 33.8933 9.72492 35.36L9.94492 45.48C9.94492 46.7267 9.43159 47.8267 8.40492 48.78C7.45159 49.66 6.31492 50.1 4.99492 50.1ZM11.3749 24.36H17.2049C21.7516 24.36 24.0249 22.49 24.0249 18.75C24.0249 15.0833 21.8983 13.25 17.6449 13.25H11.3749C10.2749 13.25 9.72492 13.8 9.72492 14.9V22.71C9.72492 23.81 10.2749 24.36 11.3749 24.36ZM50.6965 50.1C45.7832 50.1 41.7865 48.56 38.7065 45.48C35.6998 42.3267 34.1965 38.1467 34.1965 32.94C34.1965 27.7333 35.6631 23.6267 38.5965 20.62C41.6031 17.54 45.5265 16 50.3665 16C53.8132 16 56.8198 17.21 59.3865 19.63C59.6798 18.75 60.2298 18.0167 61.0365 17.43C61.8431 16.8433 62.7965 16.55 63.8965 16.55C65.3632 16.55 66.5365 16.99 67.4165 17.87C68.3698 18.6767 68.8465 19.6667 68.8465 20.84V45.81C68.8465 47.0567 68.3698 48.0833 67.4165 48.89C66.5365 49.6967 65.3632 50.1 63.8965 50.1C61.4765 50.1 59.9731 49.0367 59.3865 46.91C57.0398 49.0367 54.1432 50.1 50.6965 50.1ZM51.4665 41.19C53.8132 41.19 55.6832 40.42 57.0765 38.88C58.4698 37.2667 59.1665 35.2867 59.1665 32.94C59.1665 30.52 58.4698 28.5767 57.0765 27.11C55.6832 25.6433 53.8132 24.91 51.4665 24.91C49.1932 24.91 47.3232 25.6433 45.8565 27.11C44.4632 28.5767 43.7665 30.52 43.7665 32.94C43.7665 35.2867 44.4632 37.2667 45.8565 38.88C47.3232 40.42 49.1932 41.19 51.4665 41.19ZM79.9694 50.1C78.576 50.1 77.4027 49.6967 76.4494 48.89C75.496 48.0833 75.0194 47.0567 75.0194 45.81V4.89C75.0194 3.71666 75.4594 2.72666 76.3394 1.92C77.2927 1.04 78.5027 0.599997 79.9694 0.599997C81.3627 0.599997 82.4994 1.04 83.3794 1.92C84.2594 2.72666 84.6994 3.75333 84.6994 5V45.7C84.6994 46.9467 84.2227 48.01 83.2694 48.89C82.3894 49.6967 81.2894 50.1 79.9694 50.1ZM102.841 50.1C97.8541 50.1 93.7474 49.0733 90.5208 47.02C89.8608 46.58 89.3841 46.0667 89.0908 45.48C88.7974 44.82 88.6508 44.1967 88.6508 43.61C88.6508 42.3633 89.0541 41.2267 89.8608 40.2C90.7408 39.1733 91.8041 38.66 93.0508 38.66C93.6374 38.66 94.2241 38.8067 94.8108 39.1C96.1308 39.6867 97.6341 40.2 99.3208 40.64C101.007 41.0067 102.547 41.19 103.941 41.19C106.654 41.19 108.011 40.5667 108.011 39.32C108.011 38.5867 107.681 37.9633 107.021 37.45C106.361 36.8633 104.821 36.46 102.401 36.24C101.447 36.1667 100.201 36.02 98.6608 35.8C97.1941 35.58 95.7274 35.1767 94.2608 34.59C92.7941 33.93 91.5474 32.9767 90.5208 31.73C89.5674 30.4833 89.0908 28.7967 89.0908 26.67C89.0908 23.37 90.3374 20.7667 92.8308 18.86C95.3241 16.9533 98.6608 16 102.841 16C105.261 16 107.534 16.2567 109.661 16.77C111.861 17.2833 113.511 18.0533 114.611 19.08C115.637 20.0333 116.151 21.1333 116.151 22.38C116.151 23.48 115.747 24.47 114.941 25.35C114.134 26.23 113.107 26.67 111.861 26.67C111.201 26.67 110.577 26.5233 109.991 26.23C109.111 25.6433 107.974 25.2033 106.581 24.91C105.261 24.6167 103.904 24.47 102.511 24.47C99.7241 24.47 98.3308 25.0567 98.3308 26.23C98.3308 26.7433 98.5874 27.22 99.1008 27.66C99.6874 28.0267 100.971 28.3567 102.951 28.65C104.197 28.7967 105.627 29.0167 107.241 29.31C108.854 29.53 110.394 29.97 111.861 30.63C113.401 31.2167 114.684 32.2067 115.711 33.6C116.737 34.9933 117.251 36.9 117.251 39.32C117.251 42.62 115.931 45.26 113.291 47.24C110.651 49.1467 107.167 50.1 102.841 50.1Z" fill="#26221F"/>
</svg>
